<?xml version="1.0" encoding="utf-8"?>
<!-- Generator: Adobe Illustrator 21.0.2, SVG Export Plug-In . SVG Version: 6.00 Build 0)  -->
<svg version="1.1" id="Layer_1" xmlns="http://www.w3.org/2000/svg" xmlns:xlink="http://www.w3.org/1999/xlink" x="0px" y="0px"
	 viewBox="0 0 50 50" style="enable-background:new 0 0 50 50;" xml:space="preserve">
<style type="text/css">
	.st0{fill:#050505;}
</style>
<g>
	<g>
		<g>
			<path class="st0" d="M48.5,18.1h-3.1v17.4h-4.5V18.1h-6.4v-3.8H47c-4-8-12.3-13.5-21.9-13.5c-9.6,0-17.9,5.5-21.9,13.5H9
				c2.1,0,3.8,0.5,5,1.6c1.2,1.1,1.9,2.8,1.9,5.1c0,2.5-0.6,4.3-1.9,5.3c-1.2,1-3,1.6-5.3,1.6H4.2v7.6H2.7C6.6,44,15.1,49.9,25,49.9
				c13.6,0,24.5-11,24.5-24.5C49.6,22.8,49.2,20.4,48.5,18.1z M31,35.5l-1.4-4.4h-7.8l-1.4,4.4h-4.6l7.6-21.2h5l7.5,21.2H31z
				 M23,27.5h5.4l-2.7-8.3L23,27.5z M11.4,21.1c0-1.1-0.3-1.9-0.8-2.4C10,18.2,9.3,18,8.2,18h-4v6.2h4c1,0,1.8-0.3,2.4-0.8
				S11.4,22.2,11.4,21.1z"/>
		</g>
	</g>
</g>
</svg>
